<?xml version="1.0" standalone="no"?>
<!DOCTYPE svg PUBLIC "-//W3C//DTD SVG 20010904//EN"
 "http://www.w3.org/TR/2001/REC-SVG-20010904/DTD/svg10.dtd">
<svg version="1.0" xmlns="http://www.w3.org/2000/svg"
 width="720.000000pt" height="368.000000pt" viewBox="0 0 720.000000 368.000000"
 preserveAspectRatio="xMidYMid meet">

<g transform="translate(0.000000,368.000000) scale(0.100000,-0.100000)"
fill="#000000" stroke="none">
<path d="M1380 3293 c-750 -80 -1307 -732 -1267 -1481 24 -451 263 -864 640
-1108 258 -168 587 -251 879 -224 260 25 482 103 685 241 98 66 114 80 206
172 l77 77 2259 0 2258 0 19 21 c18 20 19 51 22 833 2 812 2 813 -18 839 l-21
27 -2212 0 c-1217 0 -2217 4 -2222 8 -6 4 -26 27 -44 52 -107 142 -331 326
-494 404 -238 114 -520 165 -767 139z m445 -91 c260 -66 462 -179 645 -362 58
-58 121 -129 140 -157 l35 -52 2223 -1 2222 0 -2 -797 -3 -798 -2259 -3 -2259
-2 -81 -83 c-269 -275 -634 -421 -1011 -404 -149 7 -256 25 -370 62 -100 33
-250 107 -346 171 -88 59 -260 225 -323 313 -389 539 -336 1271 126 1742 181
184 407 312 654 368 129 29 131 30 339 26 149 -3 207 -8 270 -23z"/>
<path d="M1029 3054 c-8 -10 -15 -11 -24 -4 -19 16 -42 2 -44 -28 -8 -129 4
-317 23 -372 27 -77 22 -116 -21 -156 -21 -19 -47 -37 -58 -40 -11 -4 -31 -16
-45 -28 -42 -38 -100 -66 -146 -73 -39 -5 -46 -10 -64 -49 -17 -34 -21 -63
-22 -141 -1 -84 3 -113 31 -203 43 -140 61 -179 88 -197 13 -9 30 -30 38 -47
30 -61 158 -176 196 -176 16 0 18 -5 13 -25 -8 -31 4 -32 52 -3 l36 21 43 -23
c35 -19 51 -22 95 -17 34 4 59 2 67 -4 9 -8 17 -8 28 1 20 17 75 3 75 -19 0
-9 -5 -22 -12 -29 -6 -6 -8 -15 -5 -19 4 -4 17 3 29 14 26 27 19 64 -17 83
-33 18 -34 44 -1 36 36 -9 40 8 11 42 -16 19 -32 28 -43 25 -12 -3 -27 10 -49
41 -35 49 -73 79 -106 81 -17 1 -22 8 -22 31 -1 50 -17 114 -29 114 -20 0 -36
-23 -36 -52 0 -15 -3 -28 -8 -28 -29 0 -142 116 -183 187 -26 45 -30 60 -27
115 3 59 5 64 34 78 17 8 46 27 64 41 32 26 33 27 11 38 -26 15 -27 38 -2 46
11 3 43 31 70 61 95 104 102 209 20 334 -44 68 -40 113 15 175 17 19 25 38 23
53 -3 15 2 26 15 33 31 17 20 62 -17 72 -16 5 -42 12 -57 17 -19 6 -31 4 -39
-6z"/>
<path d="M1487 2656 c-31 -13 -69 -31 -83 -41 -177 -116 -244 -351 -155 -540
41 -86 121 -168 206 -210 57 -28 66 -30 185 -30 121 0 127 1 185 31 119 63
199 159 230 279 52 200 -42 404 -230 496 -64 31 -78 34 -175 37 -92 2 -112 -1
-163 -22z"/>
<path d="M2672 2183 l3 -207 25 0 c24 0 25 2 28 77 l3 77 34 0 c56 0 85 34 92
107 10 111 -27 153 -137 153 l-50 0 2 -207z m106 138 c9 -5 12 -26 10 -67 -3
-56 -4 -59 -30 -62 -28 -3 -28 -3 -28 61 0 77 11 92 48 68z"/>
<path d="M2922 2184 l3 -209 25 0 c24 0 25 2 28 83 l3 83 27 -3 c26 -3 27 -5
30 -80 2 -43 7 -78 12 -79 57 -7 55 -10 55 84 0 65 -4 90 -14 96 -12 8 -11 15
4 46 23 50 16 128 -14 158 -16 17 -36 22 -91 25 l-70 4 2 -208z m102 140 c12
-5 16 -20 16 -59 0 -45 -3 -55 -20 -60 -32 -10 -40 2 -40 59 0 65 7 74 44 60z"/>
<path d="M3231 2368 c-10 -28 -54 -310 -55 -358 -1 -31 2 -35 24 -35 21 0 26
6 30 35 5 33 7 35 45 35 38 0 40 -2 45 -35 4 -30 9 -35 33 -36 16 -1 31 4 33
10 2 6 -11 99 -29 206 l-32 195 -43 3 c-36 3 -43 0 -51 -20z m65 -198 c6 -64
5 -67 -15 -65 -11 1 -23 4 -27 8 -3 3 -1 46 6 94 15 98 23 89 36 -37z"/>
<path d="M3454 2377 c-2 -7 -3 -100 -2 -207 l3 -195 30 0 c29 0 30 1 33 55 3
69 10 102 21 96 4 -3 20 -39 36 -81 25 -68 29 -75 54 -75 32 0 44 9 33 24 -5
6 -25 56 -46 112 l-37 101 40 81 c23 44 41 86 41 91 0 6 -13 11 -28 11 -26 0
-32 -8 -70 -87 l-41 -88 0 88 -1 87 -30 0 c-17 0 -33 -6 -36 -13z"/>
<path d="M3707 2383 c-4 -3 -7 -17 -7 -29 0 -18 6 -23 33 -26 l32 -3 5 -175 5
-174 30 -1 30 0 3 178 2 177 30 0 c27 0 30 3 30 30 l0 30 -93 0 c-52 0 -97 -3
-100 -7z"/>
<path d="M3970 2190 c0 -110 0 -203 0 -207 0 -5 37 -8 82 -8 l83 0 0 29 c0 28
-2 29 -50 30 l-50 1 0 59 0 60 40 0 c36 1 40 4 43 28 3 25 0 27 -40 30 l-43 3
0 55 0 55 53 3 c51 3 53 4 50 30 -3 27 -4 27 -85 30 l-83 3 0 -201z"/>
<path d="M4215 2378 c-3 -8 -4 -101 -3 -208 l3 -195 30 0 30 0 2 69 c2 98 15
101 48 12 22 -61 33 -78 52 -82 44 -11 45 8 3 115 -22 56 -40 107 -40 112 0 6
18 48 40 95 22 47 40 87 40 90 0 10 -50 3 -62 -10 -8 -7 -27 -43 -42 -80 -16
-36 -32 -66 -36 -66 -5 0 -7 35 -7 78 l2 77 -28 3 c-16 2 -29 -2 -32 -10z"/>
<path d="M4604 2377 c-2 -7 -3 -100 -2 -207 l3 -195 30 0 30 0 3 83 c2 69 5
82 20 83 9 1 26 2 37 3 14 1 21 9 23 29 3 26 1 27 -38 27 l-41 0 3 63 3 62 48
3 c45 3 47 5 47 33 l0 29 -80 0 c-56 0 -82 -4 -86 -13z"/>
<path d="M4842 2182 l3 -206 25 0 25 0 0 204 0 205 -28 2 -27 2 2 -207z"/>
<path d="M5013 2380 c-31 -12 -43 -41 -43 -98 0 -47 4 -54 61 -117 51 -56 60
-72 57 -98 -2 -27 -7 -32 -28 -32 -21 0 -26 5 -28 33 -3 31 -6 33 -35 30 -30
-3 -32 -5 -29 -38 5 -48 26 -77 62 -85 42 -9 88 3 105 28 40 63 26 123 -46
196 -52 53 -73 106 -48 122 25 16 40 10 50 -21 8 -22 17 -30 35 -30 31 0 40
22 24 61 -22 53 -77 73 -137 49z"/>
<path d="M5232 2182 l3 -207 25 0 25 0 0 205 0 205 -28 2 -27 2 2 -207z"/>
<path d="M5389 2361 l-29 -29 0 -152 0 -152 29 -29 c49 -49 131 -35 156 26 21
50 21 275 0 316 -30 56 -109 66 -156 20z m96 -181 c0 -135 -1 -145 -19 -148
-36 -7 -46 24 -46 146 0 124 9 155 43 150 21 -3 22 -7 22 -148z"/>
<path d="M5610 2360 c0 -27 3 -30 30 -30 l30 0 0 -167 c0 -93 4 -174 9 -181 4
-8 19 -12 32 -10 l24 3 5 175 5 175 33 3 c29 3 33 6 30 30 l-3 27 -97 3 -98 3
0 -31z"/>
<path d="M5870 2180 l0 -208 83 1 82 2 0 29 c0 28 -2 29 -50 30 l-50 1 0 59 0
60 40 0 c36 1 40 4 43 29 3 26 2 27 -43 27 l-46 0 3 58 3 57 53 0 52 0 0 33 0
33 -85 -2 -85 -2 0 -207z"/>
<path d="M6114 2377 c-2 -7 -3 -100 -2 -207 l3 -195 30 0 30 0 3 83 c3 79 4
82 26 82 30 0 36 -16 36 -96 0 -35 3 -65 8 -65 55 -9 57 -7 60 60 2 48 -2 73
-17 104 -11 23 -16 44 -11 47 14 8 30 58 30 91 0 42 -26 88 -56 99 -38 15
-134 13 -140 -3z m107 -57 c14 -8 19 -21 19 -53 0 -46 -13 -67 -42 -67 -15 0
-18 9 -18 58 0 73 5 81 41 62z"/>
<path d="M6427 2383 c-6 -9 -55 -322 -59 -373 -3 -31 0 -35 22 -35 21 0 27 7
34 38 9 35 12 37 48 37 32 0 38 -3 38 -21 0 -34 19 -59 45 -59 30 0 31 10 11
130 -8 47 -20 121 -27 165 -18 119 -21 125 -68 125 -22 0 -42 -3 -44 -7z m59
-180 c5 -43 9 -82 9 -87 0 -12 -44 -16 -51 -4 -7 11 18 168 27 168 4 0 11 -35
15 -77z"/>
<path d="M6652 2183 l3 -207 25 0 c24 0 25 2 28 77 l3 77 34 0 c21 0 44 9 62
24 24 21 28 32 31 92 5 113 -26 144 -144 144 l-44 0 2 -207z m106 138 c9 -5
12 -26 10 -67 -3 -56 -4 -59 -30 -62 -28 -3 -28 -3 -28 61 0 77 11 92 48 68z"/>
<path d="M6902 2184 l3 -207 28 -3 27 -3 0 210 0 209 -30 0 -30 0 2 -206z"/>
<path d="M2118 1934 c-6 -5 8 -55 24 -87 10 -21 0 -87 -14 -87 -24 0 -58 -50
-58 -87 0 -21 -8 -51 -18 -68 -10 -16 -26 -51 -36 -77 -18 -50 -58 -86 -128
-118 -56 -25 -74 -25 -166 4 -65 21 -118 26 -171 17 -3 -1 0 -6 7 -13 28 -28
14 -45 -44 -52 -129 -15 -209 -103 -243 -268 -16 -77 -57 -122 -127 -143 -39
-11 -58 -22 -61 -36 -3 -12 -14 -19 -28 -19 -29 0 -47 -22 -38 -46 9 -27 69
-84 88 -84 8 0 15 -4 15 -10 0 -5 9 -10 21 -10 29 0 85 56 104 104 9 22 30 55
47 74 24 28 29 41 24 65 -5 22 0 38 17 61 13 17 32 47 42 66 34 67 52 80 118
80 79 0 137 -18 137 -42 0 -10 7 -18 15 -18 8 0 15 -7 15 -15 0 -12 12 -14 64
-11 36 2 69 7 75 10 5 4 29 -1 53 -9 74 -28 76 -28 81 -8 4 16 6 16 12 -4 10
-31 21 -29 67 12 21 20 77 54 124 77 61 30 89 50 97 68 5 14 18 44 29 68 10
23 26 67 36 97 16 52 19 55 45 49 15 -3 27 -1 27 4 0 9 -35 56 -67 90 -15 16
-17 29 -4 36 5 3 12 36 16 73 9 87 20 103 67 103 21 0 38 5 38 10 0 6 -26 10
-59 10 -46 0 -63 4 -73 18 -20 27 -37 35 -52 22 -32 -25 -86 11 -86 58 0 20
-23 46 -32 36z"/>
<path d="M2695 1655 c-20 -19 -25 -34 -25 -76 0 -34 6 -59 16 -70 15 -16 15
-20 0 -41 -24 -34 -22 -159 2 -181 22 -20 72 -22 91 -4 11 10 14 10 18 0 3 -7
18 -13 34 -13 l29 0 0 89 c0 50 5 93 10 96 6 3 10 17 10 30 0 13 -4 27 -10 30
-5 3 -10 15 -10 26 0 14 -7 19 -30 19 -27 0 -32 -5 -29 -26 1 -12 -23 -22 -42
-17 -22 6 -34 42 -25 78 6 22 12 25 50 25 51 0 55 3 48 35 -4 23 -9 25 -59 25
-44 0 -58 -5 -78 -25z m99 -248 c-1 -78 -2 -79 -31 -75 -26 3 -28 7 -31 56 -3
47 -1 53 20 61 35 13 43 5 42 -42z"/>
<path d="M3060 1475 l0 -205 30 0 30 0 -6 125 c-5 92 -4 125 4 125 7 0 12 -11
12 -25 0 -14 7 -71 17 -125 l16 -100 32 0 32 0 13 93 c22 165 28 171 29 35 l1
-128 30 0 30 0 0 205 0 205 -45 0 c-25 0 -45 -4 -45 -8 0 -8 -25 -163 -37
-232 -6 -34 -15 5 -49 208 -5 30 -7 32 -49 32 l-45 0 0 -205z"/>
<path d="M3450 1668 c0 -7 -7 -56 -15 -108 -8 -52 -19 -124 -25 -160 -5 -36
-12 -80 -16 -97 -6 -31 -5 -33 24 -33 26 0 31 4 36 35 6 33 9 35 45 35 36 0
39 -2 45 -35 6 -31 11 -35 36 -35 37 0 37 -5 5 197 -38 237 -29 213 -86 213
-32 0 -49 -4 -49 -12z m74 -230 c6 -37 5 -38 -24 -38 -16 0 -30 2 -30 4 0 23
23 163 28 171 4 5 10 -15 14 -45 3 -30 9 -72 12 -92z"/>
<path d="M3691 1654 c-27 -35 -28 -105 -1 -148 10 -17 38 -49 60 -70 33 -32
40 -45 38 -70 -2 -26 -7 -31 -28 -31 -20 0 -26 6 -28 28 -3 23 -8 27 -33 27
-27 0 -29 -3 -29 -35 0 -51 36 -85 90 -85 55 0 76 13 90 56 19 57 5 96 -60
169 -63 69 -75 106 -42 124 22 12 42 1 46 -25 2 -13 12 -20 36 -22 30 -3 32
-2 26 20 -3 13 -6 28 -6 35 0 28 -43 53 -91 53 -39 0 -51 -5 -68 -26z"/>
<path d="M3943 1658 c-49 -55 -36 -120 43 -208 42 -48 54 -68 52 -89 -2 -20
-9 -27 -30 -29 -25 -3 -28 0 -28 28 0 29 -2 31 -32 28 -31 -3 -33 -5 -30 -38
2 -23 12 -43 29 -59 22 -19 34 -22 75 -19 108 11 115 132 13 226 -64 59 -74
122 -21 122 18 0 25 -6 28 -22 2 -18 11 -24 36 -26 35 -4 40 7 23 51 -16 42
-39 57 -90 57 -37 0 -52 -5 -68 -22z"/>
<path d="M4220 1673 c0 -5 -14 -89 -30 -188 -37 -224 -37 -217 -3 -213 22 2
29 9 33 33 5 27 9 30 47 33 41 3 42 2 45 -30 3 -29 7 -33 37 -36 33 -3 33 -3
28 30 -3 18 -18 111 -33 206 l-27 172 -49 0 c-26 0 -48 -3 -48 -7z m66 -202
l7 -71 -27 0 c-31 0 -32 8 -14 112 13 82 23 71 34 -41z"/>
<path d="M4465 1655 c-24 -23 -25 -28 -25 -178 0 -141 2 -157 21 -181 17 -22
28 -26 70 -26 40 0 55 5 74 25 23 22 25 32 25 115 l0 90 -45 0 c-43 0 -45 -1
-45 -30 0 -20 5 -30 16 -30 12 0 14 -10 12 -52 -3 -47 -6 -53 -27 -56 -13 -2
-28 2 -32 10 -5 7 -9 67 -9 133 0 66 4 126 9 133 4 8 19 12 32 10 20 -2 25
-10 27 -40 3 -35 6 -38 33 -38 28 0 29 2 29 44 0 62 -33 96 -95 96 -35 0 -52
-6 -70 -25z"/>
<path d="M4700 1475 l0 -205 90 0 90 0 0 30 c0 30 -1 30 -55 30 l-55 0 0 60 0
60 46 0 c44 0 45 1 42 28 -3 24 -7 27 -45 30 l-43 3 0 55 0 54 55 0 c54 0 55
0 55 30 l0 30 -90 0 -90 0 0 -205z"/>
<path d="M5048 1655 c-6 -30 -2 -35 33 -35 l29 0 2 -172 3 -173 33 -3 32 -3 0
175 0 175 33 3 c27 2 33 8 35 31 l3 27 -99 0 c-98 0 -100 0 -104 -25z"/>
<path d="M5310 1475 l0 -205 69 0 c94 0 120 21 128 103 5 49 3 63 -15 87 -20
27 -20 30 -5 60 10 22 14 47 10 78 -7 66 -31 82 -118 82 l-69 0 0 -205z m118
94 c3 -41 0 -47 -19 -52 -33 -9 -39 -1 -39 54 0 49 1 50 28 47 25 -3 27 -7 30
-49z m7 -180 c0 -54 0 -54 -32 -57 l-33 -3 0 59 c0 32 3 61 6 64 3 3 17 3 32
-1 25 -7 27 -11 27 -62z"/>
<path d="M5593 1658 c-51 -56 -39 -118 38 -204 33 -35 59 -71 59 -78 0 -29
-13 -46 -35 -46 -17 0 -24 7 -28 30 -6 26 -11 30 -38 30 -30 0 -31 -2 -25 -31
3 -17 6 -35 6 -38 0 -4 9 -17 20 -29 16 -17 32 -22 69 -22 65 0 91 27 91 96 0
55 -14 80 -78 143 -36 35 -43 48 -40 74 2 27 7 32 28 32 18 0 26 -6 28 -22 3
-18 10 -23 33 -23 25 0 29 4 29 29 0 15 -9 40 -21 55 -28 36 -105 38 -136 4z"/>
<path d="M5950 1621 c0 -32 -3 -86 -6 -120 l-7 -61 30 0 c25 0 32 5 37 25 5
18 13 25 30 25 29 0 36 -16 36 -80 0 -63 -7 -80 -35 -80 -23 0 -35 17 -35 51
0 14 -7 19 -30 19 -27 0 -30 -3 -30 -30 0 -37 23 -85 45 -94 39 -15 96 -6 120
19 23 22 25 31 25 123 0 86 -3 101 -20 117 -15 13 -30 16 -60 12 l-40 -5 0 39
0 39 55 0 c54 0 55 0 55 30 l0 30 -85 0 -85 0 0 -59z"/>
<path d="M1320 1420 c0 -5 5 -10 10 -10 6 0 10 5 10 10 0 6 -4 10 -10 10 -5 0
-10 -4 -10 -10z"/>
<path d="M93 1265 c0 -22 2 -30 4 -17 2 12 2 30 0 40 -3 9 -5 -1 -4 -23z"/>
</g>
</svg>
